:SAMPLES-PER-SECOND 30
:FULLY-SPECIFIED
:DEGREES
237
root  -6.26457 34.2403 7.46469 145.061 -63.8029 -150.937
RightUpLeg  -24.9841 -13.2623 13.985
RightLeg  61.9446 -1.48702 -3.5808
RightFoot  -16.8968 0.030602 2.89197
RightToes  5.82063e-011 0 -3.6325e-017
Spine  25.0029 3.33408 -1.02178
Spine1  2.70826 2.8455 2.51882
HEad  -13.5454 24.9501 2.26063
LeftShoulder1  2.12196 -4.27148 -20.8953
LeftArm  -3.71089 11.0106 -52.6163
LeftForeArm  -21.1696 -21.1125 -7.38768
LeftHand  0.262934 7.41182 15.5928
RightShoulder  1.95383 3.49956 21.644
RightArm  -2.60169 -15.0383 53.0509
RightForeArm  -37.9691 20.3256 9.67421
RightHand  -1.19064 -0.993265 -30.9186
LeftUpLeg  -27.7514 -19.6694 7.64255
LeftLeg  72.3292 8.08028 27.3868
LeftFoot  -17.046 -1.13464 -24.5955
LeftToes  3.99265e-010 -1.33173e-010 6.75004e-011
238
root  -6.61033 33.6644 7.46684 144.174 -61.3149 -152.913
RightUpLeg  -23.4366 -13.0488 13.0782
RightLeg  66.181 -0.285844 -1.31674
RightFoot  -16.468 0.0685563 4.05851
RightToes  5.82063e-011 0 -3.6325e-017
Spine  25.0395 2.84554 -0.154214
Spine1  4.56423 2.49851 2.59174
HEad  -12.3207 28.1281 2.06894
LeftShoulder1  1.77737 -4.15461 -16.4774
LeftArm  2.19736 2.71961 -59.6481
LeftForeArm  -12.79 -33.1437 -7.81686
LeftHand  -0.0910575 4.68214 11.0932
RightShoulder  1.75294 3.32096 19.2678
RightArm  -1.85955 -13.6021 52.329
RightForeArm  -26.798 38.5738 10.0931
RightHand  -1.36395 0.0586884 -28.6163
LeftUpLeg  -26.1379 -18.4388 6.63997
LeftLeg  76.5279 6.21936 29.081
LeftFoot  -15.1773 -0.778619 -25.4943
LeftToes  3.99265e-010 -1.33173e-010 6.75004e-011
239
root  -6.95367 33.1245 7.56489 145.131 -59.0757 -156.455
RightUpLeg  -22.446 -11.409 11.2335
RightLeg  70.3297 0.9441 2.08891
RightFoot  -16.1015 0.122991 5.56634
RightToes  5.82063e-011 0 -3.6325e-017
Spine  25.6896 2.61035 0.694002
Spine1  5.38585 2.51285 2.09735
HEad  -11.1944 30.5959 0.877009
LeftShoulder1  1.40914 -3.68232 -12.5506
LeftArm  -2.74654 -2.24487 -62.2727
LeftForeArm  1.2795 -51.282 -14.3935
LeftHand  -0.131308 4.22559 11.707
RightShoulder  1.53904 3.00264 17.0672
RightArm  -9.5223 -13.6438 48.5129
RightForeArm  -12.2045 58.4369 20.3429
RightHand  -1.17344 -0.346305 -26.7353
LeftUpLeg  -24.343 -15.8864 4.94247
LeftLeg  79.6347 4.62702 30.0186
LeftFoot  -15.2298 -0.789974 -25.4956
LeftToes  3.99265e-010 -1.33173e-010 6.75004e-011
240
root  -7.26687 32.699 7.70314 149.6 -57.1678 -162.269
RightUpLeg  -23.164 -8.12611 9.28616
RightLeg  73.7793 0.712998 1.65854
RightFoot  -16.9343 0.146008 5.34804
RightToes  5.82063e-011 0 -3.6325e-017
Spine  26.1753 2.5997 0.409311
Spine1  4.79732 2.62175 1.04536
HEad  -10.7767 33.0499 -0.929157
LeftShoulder1  1.11402 -2.8659 -10.1952
LeftArm  -9.86344 -3.98147 -59.435
LeftForeArm  21.1009 -70.9313 -34.7733
LeftHand  -0.124072 4.50636 15.2079
RightShoulder  1.32746 2.56448 15.1175
RightArm  -17.2949 -13.9379 44.0736
RightForeArm  7.81664 73.6348 44.4417
RightHand  -1.05045 -0.901435 -26.8533
LeftUpLeg  -23.4447 -11.9301 2.65021
LeftLeg  80.9027 3.6943 28.977
LeftFoot  -17.1693 -1.22669 -25.7283
LeftToes  3.99265e-010 -1.33173e-010 6.75004e-011
241
root  -7.50034 32.4485 7.86238 156.68 -55.7739 -169.532
RightUpLeg  -25.4314 -3.45279 7.19758
RightLeg  76.3858 -0.431535 -3.43351
RightFoot  -17.6094 0.163809 5.16606
RightToes  5.82063e-011 0 -3.6325e-017
Spine  26.9058 2.27183 -0.775762
Spine1  2.68968 2.45075 -1.43444
HEad  -11.4742 35.4678 -2.42367
LeftShoulder1  0.784077 -1.42781 -8.37621
LeftArm  -19.2245 -3.15029 -52.5812
LeftForeArm  80.6213 -79.0549 -100.215
LeftHand  -0.0485125 5.16691 20.8123
RightShoulder  1.11641 1.99819 13.3758
RightArm  -26.1054 -15.0928 40.9999
RightForeArm  45.6013 78.3257 87.1732
RightHand  -1.21419 -0.523184 -28.5581
LeftUpLeg  -24.0226 -7.08123 -0.256032
LeftLeg  80.8127 3.35982 26.6262
LeftFoot  -18.6092 -1.45879 -24.372
LeftToes  3.99265e-010 -1.33173e-010 6.75004e-011
242
root  -7.63071 32.3248 8.01068 164.119 -55.0581 -176.821
RightUpLeg  -28.0297 1.9159 4.68297
RightLeg  78.4681 -1.36286 -9.61592
RightFoot  -17.5094 0.208381 6.07051
RightToes  5.82063e-011 0 -3.6325e-017
Spine  28.5934 1.43384 -2.42246
Spine1  -0.294913 1.64612 -4.65818
HEad  -13.2515 37.4787 -3.74868
LeftShoulder1  0.412474 0.644399 -6.76056
LeftArm  -29.7658 0.573982 -44.8191
LeftForeArm  113.418 -74.0277 -137.418
LeftHand  -0.0617078 5.1909 28.7659
RightShoulder  0.955865 1.4285 12.3827
RightArm  -34.446 -18.6841 39.3238
RightForeArm  64.0824 77.424 109.564
RightHand  -1.54712 0.311652 -30.9502
LeftUpLeg  -25.317 -1.94142 -3.26713
LeftLeg  80.3059 3.00714 22.9326
LeftFoot  -19.3846 -1.42045 -21.6141
LeftToes  3.99265e-010 -1.33173e-010 6.75004e-011
243
root  -7.69722 32.2811 8.1035 171.027 -55.0819 176.527
RightUpLeg  -30.3379 7.21013 1.87238
RightLeg  80.1225 -1.84152 -14.8836
RightFoot  -17.3511 0.22283 6.47908
RightToes  5.82063e-011 0 -3.6325e-017
Spine  30.4341 0.388249 -4.39362
Spine1  -2.83194 0.287815 -7.14338
HEad  -15.9313 38.798 -5.9311
LeftShoulder1  0.129988 2.56601 -6.37435
LeftArm  -38.8214 7.18955 -38.3608
LeftForeArm  115.473 -73.6587 -138.069
LeftHand  -0.178031 4.80451 37.5662
RightShoulder  0.89373 1.03444 12.7329
RightArm  -40.8852 -24.7392 38.111
RightForeArm  57.2885 77.3625 107.819
RightHand  -1.95231 1.13805 -33.9812
LeftUpLeg  -26.415 3.05813 -5.98132
LeftLeg  79.3606 2.51465 17.8278
LeftFoot  -20.7239 -1.44311 -18.947
LeftToes  3.99265e-010 -1.33173e-010 6.75004e-011
